<?xml version="1.0" encoding="UTF-8" standalone="no"?>
<!DOCTYPE svg PUBLIC "-//W3C//DTD SVG 1.1//EN" "http://www.w3.org/Graphics/SVG/1.1/DTD/svg11.dtd">
<svg width="100%" height="100%" viewBox="0 0 1015 166" version="1.1" xmlns="http://www.w3.org/2000/svg" xmlns:xlink="http://www.w3.org/1999/xlink" xml:space="preserve" xmlns:serif="http://www.serif.com/" style="fill-rule:evenodd;clip-rule:evenodd;stroke-miterlimit:10;">
    <g transform="matrix(1,0,0,1,274.396,42.1704)">
        <path d="M0,64.077C5.046,56.215 7.571,45.535 7.571,32.038C7.571,18.545 5.046,7.865 0,0C-5.048,-7.863 -12.672,-11.796 -22.874,-11.796C-33.075,-11.796 -40.701,-7.891 -45.747,-0.08C-50.795,7.73 -53.318,18.437 -53.318,32.038C-53.318,45.641 -50.795,56.347 -45.747,64.157C-40.701,71.967 -33.075,75.872 -22.874,75.872C-12.672,75.872 -5.048,71.942 0,64.077M-57.701,74.039C-65.831,63.786 -69.895,49.786 -69.895,32.038C-69.895,14.293 -65.831,0.294 -57.701,-9.962C-49.572,-20.216 -37.964,-25.344 -22.874,-25.344C-12.886,-25.344 -4.358,-23.006 2.71,-18.331C9.775,-13.653 15.115,-6.986 18.729,1.674C22.34,10.336 24.148,20.457 24.148,32.038C24.148,43.622 22.34,53.744 18.729,62.403C15.115,71.065 9.775,77.732 2.71,82.407C-4.358,87.085 -12.886,89.421 -22.874,89.421C-37.964,89.421 -49.572,84.296 -57.701,74.039" style="fill-rule:nonzero;"/>
    </g>
    <g transform="matrix(1,0,0,1,367.402,104.734)">
        <path d="M0,6.534C3.507,1.7 5.26,-4.967 5.26,-13.47C5.26,-21.652 3.532,-28.238 0.08,-33.235C-3.375,-38.229 -8.555,-40.727 -15.461,-40.727C-22.371,-40.727 -27.79,-38.388 -31.72,-33.713C-35.652,-29.035 -37.618,-23.245 -37.618,-16.339L-37.618,-10.919C-37.618,-6.668 -36.796,-2.655 -35.147,1.115C-33.5,4.888 -31.058,7.944 -27.815,10.28C-24.575,12.619 -20.669,13.787 -16.099,13.787C-8.874,13.787 -3.507,11.371 0,6.534M-53.398,-31.482C-53.398,-35.626 -53.692,-38.918 -54.274,-41.364C-54.86,-43.808 -55.844,-46.198 -57.223,-48.537L-43.994,-53.638C-40.913,-50.343 -39.211,-45.987 -38.893,-40.568C-32.198,-49.386 -23.539,-53.797 -12.911,-53.797C-5.898,-53.797 0.184,-52.123 5.34,-48.776C10.493,-45.429 14.45,-40.727 17.215,-34.669C19.977,-28.612 21.359,-21.544 21.359,-13.47C21.359,-1.142 18.276,8.634 12.114,15.859C5.95,23.087 -2.71,26.698 -13.868,26.698C-18.756,26.698 -23.22,25.687 -27.257,23.67C-31.296,21.652 -34.696,18.836 -37.458,15.222L-37.458,60.331L-53.398,60.331L-53.398,-31.482Z" style="fill-rule:nonzero;"/>
    </g>
    <g transform="matrix(1,0,0,1,458.735,97.3206)">
        <path d="M0,-11.954C0,-18.116 -1.888,-23.191 -5.658,-27.177C-9.432,-31.161 -14.612,-33.154 -21.2,-33.154C-27.79,-33.154 -32.942,-31.055 -36.661,-26.857C-40.382,-22.658 -42.24,-17.692 -42.24,-11.954L0,-11.954ZM-47.739,23.512C-54.7,16.339 -58.179,6.695 -58.179,-5.419C-58.179,-17.318 -55.071,-27.097 -48.854,-34.748C-42.638,-42.398 -33.421,-46.225 -21.2,-46.225C-12.911,-46.225 -5.977,-44.364 -0.398,-40.645C5.181,-36.925 9.297,-32.142 11.955,-26.3C14.61,-20.454 15.94,-14.397 15.94,-8.129C15.94,-2.176 12.485,0.798 5.579,0.798L-42.24,0.798C-42.24,6.962 -40.167,11.876 -36.023,15.542C-31.879,19.208 -26.248,21.041 -19.127,21.041C-9.989,21.041 -2.605,18.331 3.029,12.912L11.317,21.838C7.811,25.771 3.452,28.826 -1.753,31.003C-6.961,33.18 -12.751,34.271 -19.127,34.271C-31.241,34.271 -40.78,30.685 -47.739,23.512" style="fill-rule:nonzero;"/>
    </g>
    <g transform="matrix(1,0,0,1,542.098,71.0203)">
        <path d="M0,40.647L0,11.956C0,5.58 -1.302,0.877 -3.905,-2.152C-6.51,-5.18 -10.52,-6.694 -15.939,-6.694C-21.996,-6.694 -26.885,-4.328 -30.604,0.399C-34.324,5.128 -36.182,10.894 -36.182,17.694L-36.182,58.977L-52.122,58.977L-52.122,1.914C-52.122,-1.487 -52.388,-4.462 -52.919,-7.013C-53.452,-9.563 -54.354,-12.059 -55.628,-14.504L-41.442,-19.924C-40.593,-18.223 -39.769,-16.178 -38.972,-13.788C-38.175,-11.396 -37.672,-9.031 -37.458,-6.694C-34.588,-10.731 -30.87,-13.947 -26.3,-16.337C-21.732,-18.729 -16.843,-19.924 -11.636,-19.924C6.747,-19.924 15.94,-9.245 15.94,12.115L15.94,40.487C15.94,46.013 17.108,50.848 19.446,54.992L5.102,60.571C1.699,54.833 0,48.193 0,40.647" style="fill-rule:nonzero;"/>
    </g>
    <g transform="matrix(1,0,0,1,585.771,29.3382)">
        <path d="M0,91.335C-7.547,84.057 -11.317,73.881 -11.317,60.811L-11.317,-10.918L4.94,-10.918L4.94,61.767C4.94,70.588 7.277,77.283 11.953,81.851C16.629,86.421 23.111,88.704 31.4,88.704C39.689,88.704 46.17,86.421 50.848,81.851C55.521,77.283 57.859,70.588 57.859,61.767L57.859,-10.918L74.119,-10.918L74.119,60.811C74.119,73.881 70.346,84.057 62.801,91.335C55.256,98.614 44.789,102.253 31.4,102.253C18.012,102.253 7.544,98.614 0,91.335" style="fill-rule:nonzero;"/>
    </g>
    <g transform="matrix(1,0,0,1,728.587,71.0203)">
        <path d="M0,40.647L0,11.956C0,5.58 -1.303,0.877 -3.905,-2.152C-6.511,-5.18 -10.521,-6.694 -15.939,-6.694C-21.997,-6.694 -26.886,-4.328 -30.604,0.399C-34.325,5.128 -36.184,10.894 -36.184,17.694L-36.184,58.977L-52.123,58.977L-52.123,1.914C-52.123,-1.487 -52.39,-4.462 -52.92,-7.013C-53.453,-9.563 -54.354,-12.059 -55.63,-14.504L-41.443,-19.924C-40.594,-18.223 -39.77,-16.178 -38.973,-13.788C-38.176,-11.396 -37.673,-9.031 -37.458,-6.694C-34.589,-10.731 -30.871,-13.947 -26.301,-16.337C-21.733,-18.729 -16.844,-19.924 -11.637,-19.924C6.747,-19.924 15.939,-9.245 15.939,12.115L15.939,40.487C15.939,46.013 17.107,50.848 19.446,54.992L5.101,60.571C1.698,54.833 0,48.193 0,40.647" style="fill-rule:nonzero;"/>
    </g>
    <g transform="matrix(1,0,0,1,-152.564,-135.288)">
        <path d="M917.81,187.978L933.749,187.978L933.749,265.285L917.81,265.285L917.81,187.978ZM917.81,170.764C915.683,168.639 914.622,166.036 914.622,162.953C914.622,159.872 915.683,157.294 917.81,155.222C919.935,153.15 922.644,152.114 925.938,152.114C929.127,152.114 931.81,153.15 933.988,155.222C936.165,157.294 937.256,159.872 937.256,162.953C937.256,166.036 936.165,168.639 933.988,170.764C931.81,172.891 929.127,173.951 925.938,173.951C922.644,173.951 919.935,172.891 917.81,170.764" style="fill-rule:nonzero;"/>
    </g>
    <g transform="matrix(1,0,0,1,816.251,32.9249)">
        <path d="M0,92.928C-3.506,89.103 -5.26,83.631 -5.26,76.51L-5.26,32.836L-18.968,32.836L-15.62,19.766L-5.101,19.766L-5.101,1.276L10.361,-5.738L10.361,19.766L30.604,19.766L27.417,32.836L10.68,32.836L10.68,76.67C10.68,79.965 11.263,82.303 12.434,83.683C13.602,85.066 15.621,85.755 18.49,85.755C21.464,85.755 24.229,85.117 26.779,83.843L30.764,95.638C29.062,96.383 26.752,97.073 23.83,97.71C20.906,98.348 18.172,98.666 15.621,98.666C8.713,98.666 3.507,96.754 0,92.928" style="fill-rule:nonzero;"/>
    </g>
    <g transform="matrix(1,0,0,1,911.89,97.3206)">
        <path d="M0,-11.954C0,-18.116 -1.888,-23.191 -5.658,-27.177C-9.432,-31.161 -14.612,-33.154 -21.199,-33.154C-27.789,-33.154 -32.942,-31.055 -36.661,-26.857C-40.382,-22.658 -42.24,-17.692 -42.24,-11.954L0,-11.954ZM-47.739,23.512C-54.7,16.339 -58.18,6.695 -58.18,-5.419C-58.18,-17.318 -55.071,-27.097 -48.854,-34.748C-42.639,-42.398 -33.421,-46.225 -21.199,-46.225C-12.911,-46.225 -5.978,-44.364 -0.398,-40.645C5.181,-36.925 9.298,-32.142 11.955,-26.3C14.609,-20.454 15.939,-14.397 15.939,-8.129C15.939,-2.176 12.485,0.798 5.579,0.798L-42.24,0.798C-42.24,6.962 -40.168,11.876 -36.023,15.542C-31.879,19.208 -26.248,21.041 -19.127,21.041C-9.989,21.041 -2.604,18.331 3.028,12.912L11.317,21.838C7.811,25.771 3.452,28.826 -1.753,31.003C-6.961,33.18 -12.752,34.271 -19.127,34.271C-31.241,34.271 -40.78,30.685 -47.739,23.512" style="fill-rule:nonzero;"/>
    </g>
    <g transform="matrix(1,0,0,1,988.8,33.0043)">
        <path d="M0,78.583C3.878,73.96 5.817,68.143 5.817,61.129L5.817,55.71C5.817,51.461 4.993,47.476 3.347,43.755C1.698,40.036 -0.745,37.008 -3.985,34.669C-7.228,32.333 -11.133,31.162 -15.701,31.162C-23.033,31.162 -28.452,33.74 -31.959,38.894C-35.466,44.049 -37.22,50.928 -37.22,59.535C-37.22,67.4 -35.466,73.696 -31.959,78.424C-28.452,83.153 -23.247,85.517 -16.338,85.517C-9.325,85.517 -3.881,83.205 0,78.583M8.767,93.088C7.862,90.804 7.356,88.281 7.252,85.517C1.088,94.231 -7.467,98.587 -18.41,98.587C-25.424,98.587 -31.561,96.993 -36.82,93.806C-42.081,90.617 -46.12,86.074 -48.935,80.177C-51.752,74.279 -53.159,67.4 -53.159,59.535C-53.159,46.998 -50.025,36.956 -43.755,29.409C-37.485,21.865 -28.719,18.092 -17.454,18.092C-7.997,18.092 -0.294,21.918 5.658,29.568L5.658,-20.004L21.598,-20.004L21.598,76.431C21.598,80.575 21.917,83.897 22.555,86.394C23.191,88.892 24.148,91.255 25.424,93.486L12.193,98.587C10.812,97.205 9.668,95.374 8.767,93.088" style="fill-rule:nonzero;"/>
    </g>
    <g transform="matrix(0.197275,-0.980348,-0.980348,-0.197275,45.8469,43.0485)">
        <path d="M-28.741,-25.031C-21.916,-0.319 -47.397,20.108 -42.462,27.946C-37.527,35.783 -28.741,26.719 -28.741,26.719C-28.741,26.719 -11.168,-13.743 -22.273,-25.813L-28.741,-25.031Z" style="fill:rgb(220,213,202);fill-rule:nonzero;"/>
    </g>
    <g transform="matrix(1,0,0,1,80.2106,23.6794)">
        <path d="M0,24.32C0,24.32 -5.423,6.622 -30.802,-7.648C-56.181,-21.917 -76.139,-19.08 -79.042,-10.199C-81.944,-1.317 -73.508,6.08 -70.759,11.264C-68.01,16.449 -69.02,21.607 -74.649,25.949C-80.279,30.291 -83.143,35.804 -75.842,41.021C-68.542,46.237 -38.059,34.297 -16.619,42.207" style="fill:rgb(255,247,234);fill-rule:nonzero;"/>
    </g>
    <g transform="matrix(0.509933,0.860214,0.860214,-0.509933,91.5433,29.9117)">
        <path d="M25.822,-14.711C44.607,-14.711 59.835,-1.272 59.836,15.308C59.835,31.887 44.607,45.326 25.822,45.326C7.039,45.326 -8.19,31.887 -8.189,15.308C-8.19,-1.272 7.039,-14.712 25.822,-14.711" style="fill:rgb(29,29,27);fill-rule:nonzero;"/>
    </g>
    <g transform="matrix(1,0,0,1,118.54,131.799)">
        <path d="M0,-54.594C1.073,-48.781 0.547,-43.368 -1.427,-39.695C-3.846,-35.197 -8.651,-32.165 -14.62,-30.988C6.298,-12.189 17.652,10.649 8.271,21.355C-1.285,32.262 -29.859,24.871 -52.742,7.355C-75.42,-10.003 -89.04,-36.6 -79.483,-47.507C-75.191,-52.406 -66.275,-53.606 -55.796,-51.732C-59.839,-59.423 -60.063,-67.755 -55.69,-74.798C-50.487,-83.177 -41.536,-86.856 -31.262,-85.115" style="fill:rgb(29,29,27);fill-rule:nonzero;"/>
    </g>
    <g transform="matrix(1,0,0,1,69.5251,128.117)">
        <path d="M0,-43.325C0,-43.325 14.676,-34.991 18.193,-29.87C18.193,-29.87 -16.362,-33.13 -27.371,-15.42C-27.371,-15.42 -21.259,-3.956 -15.868,0C-15.868,0 -5.496,-18.264 37.358,-21.975C37.358,-21.975 14.814,-41.552 0,-43.325" style="fill:rgb(248,177,51);fill-rule:nonzero;"/>
    </g>
    <g transform="matrix(-0.73093,-0.682452,-0.682452,0.73093,75.4811,131.93)">
        <path d="M-29.257,-38.736C-29.257,-38.736 -5.341,-20.674 -6.557,10.087C-6.557,10.087 -18.895,8.43 -29.257,2.746C-29.257,2.746 -23.728,-16.014 -41.018,-34.026C-41.018,-34.026 -35.541,-37.944 -29.257,-38.736" style="fill:rgb(248,177,51);fill-rule:nonzero;"/>
    </g>
    <g transform="matrix(0.509933,0.860214,0.860214,-0.509933,91.5433,29.9117)">
        <ellipse cx="25.823" cy="15.307" rx="34.013" ry="30.019" style="fill:none;stroke:rgb(29,29,27);stroke-width:2.25px;"/>
    </g>
    <g transform="matrix(1,0,0,1,104.12,19.4281)">
        <path d="M0,-7.082C2.458,-8.033 5.041,-8.661 7.639,-9.165C10.239,-9.687 12.878,-9.996 15.527,-10.233C20.83,-10.674 26.178,-10.582 31.508,-10.163L35.502,-9.765C36.834,-9.624 38.148,-9.383 39.475,-9.196C42.139,-8.853 44.746,-8.252 47.382,-7.729C48.707,-7.49 49.993,-7.118 51.295,-6.794L55.2,-5.792C57.773,-5.033 60.33,-4.211 62.906,-3.418C64.69,-2.869 65.691,-0.977 65.142,0.807C64.592,2.591 62.7,3.592 60.916,3.043C60.803,3.008 60.692,2.967 60.585,2.922L60.417,2.85C58.055,1.839 55.696,0.79 53.313,-0.201L49.691,-1.555C48.479,-1.998 47.279,-2.491 46.042,-2.852C43.582,-3.618 41.13,-4.471 38.617,-5.069C37.365,-5.385 36.119,-5.756 34.854,-6.027L31.052,-6.822C25.962,-7.775 20.79,-8.424 15.579,-8.548C12.976,-8.594 10.359,-8.569 7.755,-8.33C5.151,-8.108 2.542,-7.765 0,-7.082" style="fill:rgb(29,29,27);fill-rule:nonzero;"/>
    </g>
    <g transform="matrix(1,0,0,1,104.12,15.1181)">
        <path d="M0,-2.772C2.392,-3.946 4.985,-4.659 7.583,-5.252C10.193,-5.831 12.847,-6.181 15.513,-6.391C20.847,-6.798 26.217,-6.552 31.508,-5.853L35.462,-5.227C36.775,-4.994 38.071,-4.676 39.371,-4.385C41.975,-3.816 44.527,-3.052 47.061,-2.25C49.601,-1.471 52.051,-0.418 54.521,0.53C56.938,1.628 59.33,2.775 61.661,4.026C59.055,3.472 56.531,2.748 53.992,2.098L50.169,1.193C48.896,0.9 47.65,0.515 46.364,0.289C43.801,-0.198 41.294,-0.888 38.721,-1.259C37.441,-1.471 36.177,-1.766 34.894,-1.945L31.052,-2.512C25.924,-3.184 20.773,-3.679 15.593,-3.771C13.006,-3.789 10.405,-3.806 7.811,-3.622C5.208,-3.491 2.609,-3.232 0,-2.772" style="fill:rgb(29,29,27);fill-rule:nonzero;"/>
    </g>
    <g transform="matrix(-0.0396213,0.999215,0.999215,0.0396213,135.026,40.2066)">
        <path d="M6.847,-7.124C12.119,-7.124 16.392,-4.056 16.393,-0.271C16.393,3.513 12.119,6.581 6.847,6.581C1.575,6.581 -2.698,3.513 -2.699,-0.271C-2.699,-4.056 1.574,-7.124 6.847,-7.124" style="fill:rgb(255,247,234);fill-rule:nonzero;"/>
    </g>
    <g transform="matrix(1,0,0,1,86.321,76.4682)">
        <path d="M0,-30.001C0,-30.001 4.502,-8.077 32.219,1.763C32.219,1.763 -2.72,2.148 -21.217,-22.535C-21.217,-22.535 -15.242,-32.149 0,-30.001" style="fill:rgb(248,177,51);fill-rule:nonzero;"/>
    </g>
    <g transform="matrix(1,0,0,1,90.2467,87.7756)">
        <path d="M0,-5.493C1.995,-4.623 4.085,-4.021 6.187,-3.521C8.285,-3.006 10.421,-2.665 12.555,-2.382C16.83,-1.844 21.138,-1.739 25.416,-1.893L28.621,-2.076C29.688,-2.142 30.752,-2.293 31.814,-2.397C33.942,-2.578 36.051,-2.973 38.157,-3.298C40.261,-3.638 42.341,-4.156 44.425,-4.572C46.495,-5.09 48.551,-5.658 50.606,-6.194L50.75,-6.231C52.243,-6.621 53.769,-5.726 54.159,-4.233C54.548,-2.74 53.654,-1.214 52.161,-0.824C52.065,-0.8 51.967,-0.779 51.872,-0.764C49.669,-0.432 47.478,-0.074 45.281,0.23C43.064,0.434 40.87,0.735 38.652,0.854C36.434,0.957 34.229,1.128 32.009,1.081C30.901,1.071 29.797,1.108 28.691,1.059L25.378,0.894C20.97,0.582 16.586,0.001 12.306,-1.011C10.169,-1.53 8.05,-2.106 5.989,-2.852C3.927,-3.584 1.893,-4.414 0,-5.493" style="fill:rgb(29,29,27);fill-rule:nonzero;"/>
    </g>
    <g transform="matrix(1,0,0,1,90.2467,88.7116)">
        <path d="M0,-6.429C2.076,-5.732 4.169,-5.202 6.281,-4.776C8.378,-4.306 10.507,-4.001 12.624,-3.699C16.871,-3.156 21.139,-2.879 25.416,-2.828L28.626,-2.806C29.697,-2.799 30.766,-2.895 31.838,-2.911C33.987,-2.899 36.121,-3.156 38.275,-3.239C39.355,-3.266 40.42,-3.428 41.498,-3.51L44.733,-3.782C46.888,-4.001 49.041,-4.283 51.239,-4.415C49.18,-3.68 47.084,-3.035 44.973,-2.434C42.838,-1.963 40.706,-1.403 38.534,-1.078C34.198,-0.357 29.793,0 25.378,-0.043C20.968,-0.151 16.546,-0.56 12.237,-1.567C10.083,-2.065 7.957,-2.677 5.895,-3.47C3.843,-4.275 1.811,-5.177 0,-6.429" style="fill:rgb(29,29,27);fill-rule:nonzero;"/>
    </g>
    <g transform="matrix(1,0,0,1,80.2106,103.898)">
        <path d="M0,-24.233C1.518,-22.674 3.227,-21.328 4.983,-20.07C6.731,-18.799 8.58,-17.677 10.449,-16.61C14.204,-14.496 18.152,-12.771 22.171,-11.297L25.208,-10.255C26.221,-9.915 27.264,-9.652 28.287,-9.346C30.325,-8.71 32.427,-8.28 34.499,-7.785C36.576,-7.303 38.698,-6.998 40.784,-6.596C42.896,-6.293 45.015,-6.042 47.12,-5.761L47.267,-5.742C48.796,-5.539 49.872,-4.133 49.668,-2.604C49.465,-1.075 48.06,0 46.53,-0.203C46.433,-0.215 46.334,-0.235 46.24,-0.257C44.075,-0.782 41.911,-1.278 39.762,-1.827C37.633,-2.475 35.487,-3.026 33.39,-3.754C31.296,-4.496 29.19,-5.171 27.152,-6.052C26.13,-6.48 25.095,-6.864 24.089,-7.327L21.084,-8.731C17.12,-10.686 13.281,-12.88 9.7,-15.434C7.918,-16.722 6.174,-18.056 4.547,-19.526C2.915,-20.982 1.345,-22.519 0,-24.233" style="fill:rgb(29,29,27);fill-rule:nonzero;"/>
    </g>
    <g transform="matrix(1,0,0,1,80.2106,100.889)">
        <path d="M0,-21.224C1.659,-19.794 3.396,-18.514 5.19,-17.321C6.956,-16.093 8.811,-15.007 10.656,-13.926C14.383,-11.819 18.231,-9.951 22.171,-8.287L25.135,-7.054C26.124,-6.644 27.15,-6.328 28.149,-5.938C30.134,-5.115 32.207,-4.546 34.233,-3.808C35.243,-3.426 36.29,-3.173 37.319,-2.843L40.417,-1.871C42.496,-1.26 44.594,-0.708 46.68,0C44.496,-0.097 42.312,-0.292 40.13,-0.534C37.975,-0.904 35.789,-1.191 33.656,-1.711C29.369,-2.681 25.155,-4.015 21.084,-5.723C17.042,-7.489 13.102,-9.538 9.492,-12.099C7.687,-13.374 5.949,-14.745 4.34,-16.258C2.745,-17.778 1.204,-19.381 0,-21.224" style="fill:rgb(29,29,27);fill-rule:nonzero;"/>
    </g>
</svg>
